<svg xmlns="http://www.w3.org/2000/svg" width="1145" height="1145" viewBox="0 0 1145 1145">
  <g id="Grupo_6" data-name="Grupo 6" transform="translate(-75 -122)">
    <g id="user" transform="translate(391.56 439)">
      <g id="Grupo_2" data-name="Grupo 2">
        <g id="Grupo_1" data-name="Grupo 1">
          <path id="Caminho_1" data-name="Caminho 1" d="M256,288.389c-153.837,0-238.56,72.776-238.56,204.925A18.685,18.685,0,0,0,36.126,512H475.873a18.685,18.685,0,0,0,18.686-18.686C494.56,361.172,409.837,288.389,256,288.389ZM55.492,474.628C62.842,375.822,130.205,325.762,256,325.762s193.159,50.06,200.515,148.866Z" fill="#fff"/>
        </g>
      </g>
      <g id="Grupo_4" data-name="Grupo 4">
        <g id="Grupo_3" data-name="Grupo 3">
          <path id="Caminho_2" data-name="Caminho 2" d="M256,0C185.335,0,132.049,54.358,132.049,126.437c0,74.19,55.6,134.54,123.951,134.54s123.951-60.35,123.951-134.534C379.951,54.358,326.665,0,256,0Zm0,223.611c-47.743,0-86.579-43.589-86.579-97.168,0-51.611,36.413-89.071,86.579-89.071,49.363,0,86.579,38.288,86.579,89.071C342.579,180.022,303.743,223.611,256,223.611Z" fill="#fff"/>
        </g>
      </g>
    </g>
    <g id="Grupo_5" data-name="Grupo 5">
      <g id="Caminho_3" data-name="Caminho 3" transform="translate(75 122)" fill="none">
        <path d="M572.5,0C888.683,0,1145,256.317,1145,572.5S888.683,1145,572.5,1145,0,888.683,0,572.5C0,392.908,82.694,232.63,212.026,127.712A570.166,570.166,0,0,1,572.5,0Z" stroke="none"/>
        <path d="M 572.5 40 C 450.7119750976563 40 331.6425170898438 82.18212890625 237.225830078125 158.7761840820313 C 111.885986328125 260.4556274414063 40 411.252197265625 40 572.5 C 40 866.1214599609375 278.8785400390625 1105 572.5 1105 C 866.1214599609375 1105 1105 866.1214599609375 1105 572.5 C 1105 278.8785400390625 866.1214599609375 40 572.5 40 M 572.5 0 C 888.6829223632813 0 1145 256.3170776367188 1145 572.5 C 1145 888.6829223632813 888.6829223632813 1145 572.5 1145 C 256.3170776367188 1145 0 888.6829223632813 0 572.5 C 0 392.9080200195313 82.6939697265625 232.63037109375 212.0258178710938 127.7123413085938 C 310.4903564453125 47.834716796875 435.908935546875 0 572.5 0 Z" stroke="none" fill="#fff"/>
      </g>
    </g>
  </g>
</svg>
